<svg width="25" height="28" viewBox="0 0 25 28" fill="none" xmlns="http://www.w3.org/2000/svg">
<path d="M16.3337 20.6667V22C16.3337 24.2091 14.5428 26 12.3337 26C10.1245 26 8.33366 24.2091 8.33366 22V20.6667M16.3337 20.6667H8.33366M16.3337 20.6667H21.121C21.631 20.6667 21.8873 20.6667 22.0938 20.597C22.4883 20.4639 22.7969 20.1542 22.93 19.7597C23 19.5524 23 19.2953 23 18.7812C23 18.5563 22.9997 18.4438 22.9821 18.3366C22.9488 18.1339 22.8702 17.9418 22.7504 17.775C22.6871 17.6868 22.6067 17.6064 22.4481 17.4478L21.9287 16.9284C21.7611 16.7608 21.667 16.5335 21.667 16.2965V11.3333C21.667 6.17867 17.4883 1.99999 12.3337 2C7.17901 2.00001 3.00033 6.17869 3.00033 11.3333V16.2966C3.00033 16.5336 2.90598 16.7608 2.73841 16.9284L2.21908 17.4477C2.06 17.6068 1.98038 17.6867 1.91699 17.775C1.7972 17.9418 1.71785 18.1339 1.68459 18.3366C1.66699 18.4438 1.66699 18.5563 1.66699 18.7813C1.66699 19.2953 1.66699 19.5523 1.73693 19.7597C1.86999 20.1541 2.18006 20.4639 2.57454 20.597C2.78107 20.6667 3.03635 20.6667 3.5464 20.6667H8.33366" stroke="#8EE659" stroke-width="3" stroke-linecap="round" stroke-linejoin="round"/>
</svg>
