<svg width="18" height="22" viewBox="0 0 18 22" fill="none" xmlns="http://www.w3.org/2000/svg">
<path d="M1.55615 4.93557V16.6003C1.55615 18.2741 1.55615 19.1109 1.80718 19.623C2.27244 20.5723 3.29209 21.1178 4.33999 20.9784C4.90537 20.9032 5.60171 20.439 6.9944 19.5105L6.99774 19.5083C7.54976 19.1403 7.8258 18.9562 8.11456 18.8542C8.64492 18.6667 9.2236 18.6667 9.75395 18.8542C10.0433 18.9564 10.3204 19.1412 10.8747 19.5107C12.2674 20.4391 12.9645 20.903 13.5299 20.9782C14.5778 21.1176 15.5974 20.5723 16.0626 19.623C16.3136 19.1109 16.3136 18.2739 16.3136 16.6003V4.93153C16.3136 3.55673 16.3136 2.8683 16.0458 2.34268C15.81 1.87988 15.4328 1.50389 14.97 1.26808C14.4438 1 13.756 1 12.3785 1H5.49172C4.11423 1 3.42497 1 2.89883 1.26808C2.43603 1.50389 2.06004 1.87988 1.82423 2.34268C1.55615 2.86881 1.55615 3.55807 1.55615 4.93557Z" stroke="#CCCCCC" stroke-width="2" stroke-linecap="round" stroke-linejoin="round"/>
</svg>
