<svg width="23" height="22" viewBox="0 0 23 22" fill="none" xmlns="http://www.w3.org/2000/svg">
<path d="M6.56702 19.6687C8.03534 20.5155 9.73898 21 11.5558 21C17.0786 21 21.5562 16.5229 21.5562 11C21.5562 5.47716 17.079 1 11.5562 1C6.03332 1 1.55615 5.47716 1.55615 11C1.55615 12.8168 2.04065 14.5205 2.88748 15.9888L2.89076 15.9945C2.97224 16.1358 3.01333 16.207 3.03194 16.2743C3.0495 16.3378 3.0544 16.3949 3.0499 16.4607C3.04507 16.5313 3.02127 16.6045 2.97247 16.7509L2.11822 19.3137L2.11714 19.317C1.93691 19.8577 1.84679 20.1281 1.91102 20.3082C1.96703 20.4653 2.09136 20.5893 2.24843 20.6453C2.42817 20.7094 2.69732 20.6197 3.23565 20.4402L3.24235 20.4377L5.8051 19.5835C5.95102 19.5349 6.02521 19.5102 6.09571 19.5054C6.16144 19.5009 6.21814 19.5068 6.28164 19.5244C6.34915 19.543 6.42043 19.5841 6.56243 19.666L6.56702 19.6687Z" stroke="#CCCCCC" stroke-width="2" stroke-linecap="round" stroke-linejoin="round"/>
</svg>
