<svg width="6" height="22" viewBox="0 0 6 22" fill="none" xmlns="http://www.w3.org/2000/svg">
<g id="Vector">
<path d="M1.55176 19.5714C1.55176 20.3604 2.19135 21 2.98033 21C3.76931 21 4.4089 20.3604 4.4089 19.5714C4.4089 18.7825 3.76931 18.1429 2.98033 18.1429C2.19135 18.1429 1.55176 18.7825 1.55176 19.5714Z" stroke="black" stroke-width="2" stroke-linecap="round" stroke-linejoin="round"/>
<path d="M1.55176 11C1.55176 11.789 2.19135 12.4286 2.98033 12.4286C3.76931 12.4286 4.4089 11.789 4.4089 11C4.4089 10.211 3.76931 9.57143 2.98033 9.57143C2.19135 9.57143 1.55176 10.211 1.55176 11Z" stroke="black" stroke-width="2" stroke-linecap="round" stroke-linejoin="round"/>
<path d="M1.55176 2.42857C1.55176 3.21755 2.19135 3.85714 2.98033 3.85714C3.76931 3.85714 4.4089 3.21755 4.4089 2.42857C4.4089 1.63959 3.76931 1 2.98033 1C2.19135 1 1.55176 1.63959 1.55176 2.42857Z" stroke="black" stroke-width="2" stroke-linecap="round" stroke-linejoin="round"/>
</g>
</svg>
