<svg width="21" height="26" viewBox="0 0 21 26" fill="none" xmlns="http://www.w3.org/2000/svg">
<path id="Union" fill-rule="evenodd" clip-rule="evenodd" d="M13.8464 18.4954C12.6901 19.0035 11.4121 19.2855 10.0681 19.2855C4.87602 19.2855 0.666992 15.0764 0.666992 9.88434C0.666992 4.69224 4.87602 0.483215 10.0681 0.483215C15.2602 0.483215 19.4692 4.69224 19.4692 9.88434C19.4692 12.8027 18.1394 15.4106 16.0527 17.1349L20.6669 24.0839L18.5087 25.5169L13.8464 18.4954ZM16.4777 9.88433C16.4777 13.4244 13.6079 16.2942 10.0679 16.2942C6.52781 16.2942 3.65802 13.4244 3.65802 9.88433C3.65802 6.34426 6.52781 3.47447 10.0679 3.47447C13.6079 3.47447 16.4777 6.34426 16.4777 9.88433Z" fill="#CCCCCC"/>
</svg>
